<svg xmlns="http://www.w3.org/2000/svg" pointer-events="none" class="leaflet-zoom-animated" width="1975" height="1214" viewBox="366 567 1975 1214" style="transform: translate3d(366px, 567px, 0px);"><g><path class="leaflet-interactive" stroke="black" stroke-opacity="1" stroke-width="2" stroke-linecap="round" stroke-linejoin="round" fill="#eee" fill-opacity="0.5" fill-rule="evenodd" d="M1279 1783L1284 1770L1292 1735L1305 1712L1323 1689L1348 1668L1369 1647L1375 1639L1386 1615L1394 1605L1410 1593L1442 1584L1455 1575L1460 1566L1463 1538L1462 1504L1457 1490L1448 1486L1441 1491L1426 1507L1418 1513L1415 1511L1413 1507L1419 1489L1426 1477L1427 1464L1403 1452L1392 1450L1378 1436L1379 1424L1386 1411L1387 1406L1402 1384L1407 1373L1402 1369L1394 1368L1389 1370L1376 1371L1363 1369L1360 1366L1358 1354L1363 1344L1362 1301L1363 1298L1373 1293L1382 1285L1403 1287L1410 1293L1417 1291L1435 1279L1449 1265L1456 1251L1451 1241L1431 1220L1430 1179L1419 1137L1419 1124L1429 1090L1433 1083L1445 1073L1471 1070L1507 1053L1487 1016L1471 1004L1465 988L1457 976L1460 959L1468 937L1468 926L1457 905L1450 903L1448 889L1445 884L1438 881L1434 884L1413 889L1409 895L1404 894L1410 886L1411 881L1397 882L1395 879L1390 879L1387 875L1377 875L1370 878L1350 880L1341 884L1339 882L1339 875L1344 862L1343 855L1340 852L1335 852L1323 859L1316 860L1311 803L1317 785L1322 776L1359 728L1368 709L1389 688L1414 669L1435 641L1441 629L1440 610L1443 598L1451 579L1450 566L1487 565L1318 565L1313 568L1292 593L1285 613L1293 637L1300 649L1303 661L1292 670L1285 683L1277 691L1268 698L1252 702L1248 708L1245 717L1236 722L1227 736L1224 746L1225 755L1221 794L1212 809L1198 850L1200 859L1199 867L1192 893L1184 905L1187 915L1193 925L1206 930L1214 938L1213 947L1204 960L1210 975L1211 1005L1209 1021L1202 1026L1188 1028L1173 1040L1169 1047L1156 1057L1148 1054L1141 1054L1127 1066L1123 1072L1118 1097L1109 1106L1106 1115L1101 1123L1100 1165L1096 1173L1108 1223L1110 1223L1112 1226L1130 1257L1147 1278L1153 1294L1153 1312L1142 1361L1134 1375L1097 1403L1088 1413L1084 1421L1086 1433L1106 1455L1113 1474L1109 1503L1111 1513L1123 1526L1144 1525L1161 1537L1157 1551L1159 1590L1143 1619L1142 1629L1129 1649L1100 1681L1082 1709L1068 1755L1068 1774L1070 1783z" data-spm-anchor-id="a2crr.b71357980.area-selector.i7.509926c08fBzTg" id="普安县"/></g></svg>